<?xml version="1.0" encoding="UTF-8"?>
<svg version="1.1" xmlns="http://www.w3.org/2000/svg" width="1024" height="1024">
<path d="M0 0 C337.92 0 675.84 0 1024 0 C1024 337.92 1024 675.84 1024 1024 C686.08 1024 348.16 1024 0 1024 C0 686.08 0 348.16 0 0 Z " fill="#8B0100" transform="translate(0,0)"/>
<path d="M0 0 C1.96314148 0.00223572 1.96314148 0.00223572 3.96594238 0.0045166 C22.88213287 0.04330895 41.46119518 0.43082031 60.1875 3.3125 C61.18281738 3.45703613 62.17813477 3.60157227 63.20361328 3.75048828 C69.9084337 4.73993964 76.55053084 5.94205803 83.1875 7.3125 C84.15896973 7.51182129 85.13043945 7.71114258 86.13134766 7.91650391 C141.84495226 19.6442583 194.03655758 45.90432566 235.1875 85.3125 C235.7144043 85.81217285 236.24130859 86.3118457 236.78417969 86.82666016 C244.54979474 94.22588566 251.49427451 101.96973296 257.89648438 110.57714844 C258.73757113 111.70771664 259.58494514 112.83364296 260.43945312 113.95410156 C284.92358408 146.062847 302.19363556 188.3150336 302.390625 229.06640625 C302.39632507 230.00314682 302.40202515 230.93988739 302.40789795 231.90501404 C302.41731711 233.88938279 302.42386963 235.87376696 302.42773438 237.8581543 C302.43730235 240.81394115 302.46829638 243.76898948 302.5 246.72460938 C302.59733303 264.08100341 300.97276086 281.27644388 296.625 298.125 C296.37451904 299.10235107 296.12403809 300.07970215 295.8659668 301.08666992 C285.09786962 341.0592964 261.28179492 377.94346295 225.1875 399.3125 C199.65435721 413.79925296 172.63750833 419.66653968 143.64291382 422.07614136 C138.79026189 422.48137052 133.94030638 422.91714903 129.08984375 423.34765625 C128.13960831 423.43136978 127.18937286 423.51508331 126.21034241 423.60133362 C79.93769664 427.67913495 35.21945937 436.94697471 -0.8125 468.3125 C-1.51632812 468.88355469 -2.22015625 469.45460938 -2.9453125 470.04296875 C-8.7159381 474.80656361 -13.26315045 480.39504895 -17.8125 486.3125 C-18.4209375 487.09367187 -19.029375 487.87484375 -19.65625 488.6796875 C-30.6343102 503.50006877 -36.22789426 520.38947128 -39.8125 538.3125 C-40.33457031 537.96058594 -40.85664063 537.60867188 -41.39453125 537.24609375 C-42.97327997 536.18714321 -44.55714221 535.13579777 -46.14453125 534.08984375 C-47.86806989 532.94165915 -49.57541218 531.76860567 -51.26171875 530.56640625 C-66.92008194 519.79978286 -85.4926886 516.81301965 -104.0625 515.375 C-163.02808566 510.76430287 -224.23108823 480.26631365 -263.25732422 435.66113281 C-282.15701202 413.26199284 -295.34319739 387.9321361 -304.8125 360.3125 C-305.07256836 359.58208496 -305.33263672 358.85166992 -305.60058594 358.09912109 C-310.79602803 343.38830967 -312.57786444 327.68781476 -314.8125 312.3125 C-314.92883789 311.59787598 -315.04517578 310.88325195 -315.16503906 310.14697266 C-318.22501389 289.9390744 -316.36430391 267.28496259 -312.8125 247.3125 C-312.61914062 246.22195313 -312.42578125 245.13140625 -312.2265625 244.0078125 C-307.34079357 217.40751499 -298.91827991 192.48588629 -286.8125 168.3125 C-286.48491699 167.65604492 -286.15733398 166.99958984 -285.81982422 166.32324219 C-258.46606623 112.70083397 -211.94158527 65.22432221 -158.8125 37.3125 C-158.17570313 36.97557129 -157.53890625 36.63864258 -156.8828125 36.29150391 C-122.88901786 18.43281611 -85.82356679 7.40143635 -47.8125 2.3125 C-46.5119165 2.13372314 -45.21133301 1.95494629 -43.87133789 1.77075195 C-29.2808069 -0.08005299 -14.68703933 -0.04117127 0 0 Z " fill="#FBF9F7" transform="translate(519.8125,305.6875)"/>
<path d="M0 0 C10.66206034 8.15721772 18.4084411 18.64584945 21 32 C22.6600508 46.18835252 20.40905778 59.08117363 12.1875 71 C7.82504661 76.48144702 3.50894765 81.82479425 -3.2890625 84.1015625 C-8.82058619 86.08667922 -8.82058619 86.08667922 -13 90 C-15.30048486 96.94857294 -15.28694957 104.50906321 -15.72558594 111.75927734 C-16.13739246 116.62255118 -17.10596984 121.30983451 -18.1875 126.0625 C-18.45735718 127.27534668 -18.45735718 127.27534668 -18.73266602 128.51269531 C-19.14518844 130.34406018 -19.57088556 132.17245169 -20 134 C-18.97003906 133.74605469 -17.94007813 133.49210938 -16.87890625 133.23046875 C-9.44698484 131.42625348 -2.05074116 129.7848916 5.5 128.5625 C28.5194945 124.71750888 50.98173909 116.43689175 68 100 C67.52148372 97.42623285 66.97918713 94.92861079 66.24609375 92.4140625 C62.32689946 78.8956822 62.90164837 66.75391306 69 54 C76.17919356 41.02643195 87.44556731 32.54249125 101.38671875 27.86328125 C114.5588437 24.7162114 127.72541535 27.20806902 139.375 33.875 C151.95755195 42.04654424 159.06924789 52.6106674 163.6171875 66.9453125 C166.19233224 80.76700775 162.72372258 94.48187222 155 106 C146.42774919 117.34755807 134.98952338 124.22305341 121 127 C111.09270794 127.77879487 101.69364789 126.95416265 92.9765625 121.8046875 C90.21971814 120.68233584 88.79941756 121.04535991 86 122 C83.64865957 123.68973187 83.64865957 123.68973187 81.3125 125.875 C69.07563201 136.19010483 55.09833941 143.78712072 40 149 C39.27699707 149.25056152 38.55399414 149.50112305 37.80908203 149.75927734 C28.64515474 152.83387172 19.3500935 154.99440576 9.85546875 156.75390625 C9.04387299 156.90435394 8.23227722 157.05480164 7.39608765 157.20980835 C3.31682231 157.9593006 -0.76520894 158.68422497 -4.85449219 159.37695312 C-17.90077975 161.64288863 -28.91239139 165.01357283 -39 174 C-39.56847656 174.47566406 -40.13695312 174.95132813 -40.72265625 175.44140625 C-59.68327623 192.6090598 -70.13043184 220.04532934 -72 245 C-72.11409263 248.02542169 -72.10811769 250.97270468 -72 254 C-71.21238281 253.31035156 -70.42476562 252.62070312 -69.61328125 251.91015625 C-49.79841775 234.73850395 -27.29002507 221.27521269 -2 214 C-0.89011719 213.67902344 0.21976563 213.35804688 1.36328125 213.02734375 C13.71538583 210.01975317 26.37433905 210.72025862 39 211 C39.36770508 210.18152588 39.73541016 209.36305176 40.11425781 208.51977539 C46.49214655 194.56726123 56.06543918 185.71434756 70.0625 179.5625 C80.48733894 176.08755369 93.97730982 176.49407262 104 181 C104.88816406 181.39058594 105.77632812 181.78117188 106.69140625 182.18359375 C117.26530864 187.37495334 125.09717185 195.31817288 130 206 C130.39058594 206.68707031 130.78117187 207.37414062 131.18359375 208.08203125 C136.45773007 218.50255665 135.53389187 232.6972799 132 243.5625 C126.4562957 256.77732455 117.47888261 265.96103714 104.8125 272.5 C93.53298665 277.00933447 78.55237456 277.3481887 67.1875 272.9375 C64.49609375 271.54296875 64.49609375 271.54296875 62 270 C61.12472656 269.48050781 60.24945312 268.96101563 59.34765625 268.42578125 C48.92623861 261.70279153 41.92074952 252.76224857 38 241 C15.17473755 235.29368439 -9.8903774 243.98810463 -29.36181641 255.62207031 C-56.70367994 272.63861696 -78.22616382 295.82326944 -95.4375 322.875 C-96.16356445 324.01509521 -96.16356445 324.01509521 -96.90429688 325.17822266 C-101.09342256 331.8945156 -104.9720506 338.7900737 -107.5 346.3125 C-109.11105394 350.27300761 -110.72336887 352.29677932 -114 355 C-118.77364362 356.59121454 -123.15016855 356.79879085 -127.75 354.8125 C-131.58171406 351.72584145 -133.70249573 349.30444182 -134.8125 344.4375 C-136.09551002 340.72352362 -137.17890767 339.56507659 -140.66796875 337.82421875 C-143.61130677 336.7839435 -146.56766338 336.18920207 -149.625 335.5625 C-155.0727308 334.41165905 -157.77802774 333.55520215 -161 329 C-163.45753746 324.70596343 -163.94081744 320.85952661 -163 316 C-160.91740574 312.30844496 -158.26817804 309.78832689 -154.6875 307.5625 C-145.49963791 305.6394591 -138.44162748 308.14163841 -130 312 C-129.01 312.66 -128.02 313.32 -127 314 C-124.90999817 313.94825394 -124.90999817 313.94825394 -123 313 C-121.7365119 311.50375452 -121.7365119 311.50375452 -120.84375 309.5625 C-120.46661865 308.8398999 -120.0894873 308.1172998 -119.70092773 307.37280273 C-119.10646851 306.19826538 -119.10646851 306.19826538 -118.5 305 C-113.46705716 295.47194935 -107.68581964 284.68581964 -100 277 C-99.64663619 273.97042501 -99.76534051 272.39823096 -101.328125 269.74609375 C-122.45862299 244.36372726 -147.08585995 231.43454399 -179 224 C-179.39832031 225.10214844 -179.39832031 225.10214844 -179.8046875 226.2265625 C-184.18358455 236.38674846 -193.42986226 244.36889979 -203.3125 248.93359375 C-215.73038785 253.86104053 -228.5390026 255.04733457 -241.18359375 250.265625 C-254.64030261 244.21850479 -264.76057326 235.44655168 -270.375 221.5625 C-274.54799061 210.25913848 -275.09176302 196.14236952 -270.9375 184.6875 C-263.99697665 169.75662624 -252.14210135 160.9518067 -237.203125 154.859375 C-225.00272229 151.58609622 -210.38657979 153.36898393 -199.41796875 159.42578125 C-197.18724121 160.85744221 -195.09322529 162.37572539 -193 164 C-191.453125 165.11375 -191.453125 165.11375 -189.875 166.25 C-181.73553399 174.03557619 -176.62268671 184.09392183 -174 195 C-173.33693848 195.13986328 -172.67387695 195.27972656 -171.99072266 195.42382812 C-157.52647744 198.53205425 -144.15439276 202.16519404 -131 209 C-130.37061523 209.32226562 -129.74123047 209.64453125 -129.09277344 209.9765625 C-117.21113784 216.14623502 -107.08442225 224.26975558 -97 233 C-98.09835216 195.09345577 -107.15644047 164.47669604 -129 133 C-132.51118152 134.36651389 -135.90949133 135.88467895 -139.3125 137.5 C-151.54521383 143.02182422 -163.06195336 143.68776334 -175.93359375 139.2578125 C-188.26067063 134.20135549 -198.16786344 126.07199087 -204 114 C-204.41378906 113.15308594 -204.82757813 112.30617188 -205.25390625 111.43359375 C-209.65343615 100.65704489 -210.12894577 85.88506273 -206.375 74.8125 C-205.63747783 73.18273073 -204.84591299 71.57623539 -204 70 C-203.56429687 69.1440625 -203.12859375 68.288125 -202.6796875 67.40625 C-195.55019939 54.47187813 -184.00932341 46.30844765 -170 42 C-166.27311537 41.4043177 -162.64528478 41.28373384 -158.875 41.3125 C-157.87307617 41.31975098 -156.87115234 41.32700195 -155.83886719 41.33447266 C-142.33427998 41.77338255 -131.92011539 46.80932224 -122.3359375 56.3359375 C-111.25118786 68.97774228 -108.16917915 81.68983671 -108.84423828 98.06640625 C-109.02824561 100.35063512 -109.55033262 102.47272353 -110.125 104.6875 C-110.75916988 109.75125041 -107.47001201 113.21002179 -104.66699219 117.09985352 C-99.94087959 123.77008057 -96.12030098 130.87471637 -92.375 138.125 C-92.05191864 138.74937958 -91.72883728 139.37375916 -91.39596558 140.01705933 C-85.73126927 151.03266513 -81.00980734 162.27803926 -77 174 C-69.83729217 167.3174737 -64.58353474 158.99443599 -59 151 C-58.3503125 150.08605469 -57.700625 149.17210937 -57.03125 148.23046875 C-45.79079346 131.16052012 -43.7856962 108.88624165 -43 89 C-43.74894531 88.8659375 -44.49789062 88.731875 -45.26953125 88.59375 C-56.23688895 86.20885963 -64.96916503 77.26502978 -71.46484375 68.52734375 C-78.45355185 57.0217607 -81.06788826 43.06538383 -78.3515625 29.84375 C-73.46838194 13.98384732 -64.94807148 3.42344004 -50.4765625 -4.265625 C-34.1000038 -12.43550372 -15.02246591 -10.50766399 0 0 Z " fill="#8C0302" transform="translate(550,393)"/>
<path d="M0 0 C1.13846375 0.00598206 1.13846375 0.00598206 2.29992676 0.01208496 C14.29711119 0.08574912 25.94205226 0.76205726 37.6875 3.375 C39.56501953 3.77525391 39.56501953 3.77525391 41.48046875 4.18359375 C68.31963297 10.65606101 94.10045238 23.26818054 114.32421875 42.16796875 C115.92267492 43.66074187 117.55172122 45.12131197 119.20703125 46.55078125 C125.47185659 51.96874848 130.62550489 57.83210207 135.6875 64.375 C136.74710938 65.67630859 136.74710938 65.67630859 137.828125 67.00390625 C154.08370553 87.55727516 164.69493054 111.99894648 170.6875 137.375 C171.00509277 138.69757813 171.00509277 138.69757813 171.32910156 140.046875 C186.19892626 205.27615355 166.86993244 280.48717962 136.67480469 338.45654297 C135.697128 340.35629158 134.75637376 342.27086676 133.8203125 344.19140625 C124.23105092 363.49176606 111.44822373 381.82585944 97.6875 398.375 C96.93597656 399.31601562 96.18445313 400.25703125 95.41015625 401.2265625 C90.58577106 407.2464456 85.48759854 412.95187908 80.2421875 418.6015625 C78.17498759 420.84577035 76.1671492 423.11685859 74.1875 425.4375 C67.30348242 433.36154902 59.67588787 440.58139709 51.6875 447.375 C50.72972656 448.22191406 49.77195312 449.06882812 48.78515625 449.94140625 C26.24102599 469.78985862 1.06293297 487.0332972 -25.3125 501.375 C-26.79411621 502.18251709 -26.79411621 502.18251709 -28.30566406 503.00634766 C-61.85945898 521.15445845 -96.8101362 534.54842119 -133.6875 544.125 C-134.66935776 544.381745 -134.66935776 544.381745 -135.67105103 544.64367676 C-147.81775347 547.79052884 -147.81775347 547.79052884 -153.3125 547.375 C-156.25 545.3125 -156.25 545.3125 -158.3125 542.375 C-158.625 538.875 -158.625 538.875 -157.3125 535.375 C-152.46549648 531.39535501 -146.42827447 528.92815026 -140.75 526.375 C-104.81969264 509.74152405 -70.06101805 486.49043754 -40.3125 460.375 C-39.5803125 459.74207031 -38.848125 459.10914063 -38.09375 458.45703125 C-33.55014145 454.51743415 -29.0986871 450.47679999 -24.63671875 446.4453125 C-22.78570176 444.79650745 -20.91859371 443.19341337 -19 441.625 C-14.35446079 437.73571136 -10.44126197 433.42879779 -6.64453125 428.73046875 C-6.20496094 428.28316406 -5.76539063 427.83585937 -5.3125 427.375 C-4.6525 427.375 -3.9925 427.375 -3.3125 427.375 C-3.06628906 426.79878906 -2.82007813 426.22257812 -2.56640625 425.62890625 C-1.11087901 423.0125847 0.57358731 421.36608164 2.75 419.3125 C7.84291075 414.32535257 12.28309446 408.9717996 16.6875 403.375 C17.48027344 402.37597656 18.27304687 401.37695312 19.08984375 400.34765625 C39.4540868 374.44938768 55.32970475 346.30704757 66.6875 315.375 C67.02998779 314.47096436 67.37247559 313.56692871 67.7253418 312.63549805 C78.72187105 283.27588304 82.14113874 251.14823907 82.1875 220 C82.19199158 219.07916626 82.19648315 218.15833252 82.20111084 217.20959473 C82.23629509 199.53919659 80.31230611 182.06692133 76.4375 164.8125 C76.22625488 163.86745605 76.01500977 162.92241211 75.79736328 161.94873047 C65.22889629 116.43528218 40.74443111 76.82722735 8.6875 43.375 C7.90761719 42.55386719 7.12773438 41.73273438 6.32421875 40.88671875 C0.81824371 35.2242684 -5.13878472 30.28893307 -11.3125 25.375 C-12.51796795 24.39189992 -13.7223425 23.40745804 -14.92578125 22.421875 C-22.46403042 16.27676325 -30.08578896 10.58371835 -38.3125 5.375 C-27.66436363 -0.92601632 -11.99133288 -0.12895328 0 0 Z " fill="#FBF9F7" transform="translate(767.3125,332.625)"/>
<path d="M0 0 C-3.51508506 3.56006786 -7.11680984 7.00214066 -10.8125 10.375 C-11.29525391 10.8184375 -11.77800781 11.261875 -12.27539062 11.71875 C-15.09967056 14.30305844 -17.96146843 16.83441412 -20.859375 19.3359375 C-31.81224257 28.89703305 -42.24416915 39.37980812 -51 51 C-51.42442383 51.55333008 -51.84884766 52.10666016 -52.28613281 52.67675781 C-58.78158819 61.16089974 -64.5519027 69.88869419 -69.90722656 79.12939453 C-71.36641757 81.62723222 -72.86775714 84.09846878 -74.36962891 86.57080078 C-75.8920221 89.08488682 -77.39372663 91.61098473 -78.89257812 94.13916016 C-79.61018447 95.34497929 -80.33255507 96.54798093 -81.06054688 97.74755859 C-105.05236636 137.38767375 -120.66664951 184.94555414 -125 231 C-125.11085938 232.09570312 -125.22171875 233.19140625 -125.3359375 234.3203125 C-126.44735303 247.50710755 -126.17231904 260.78008865 -126 274 C-125.99274902 274.81227051 -125.98549805 275.62454102 -125.97802734 276.46142578 C-125.66444122 299.37447273 -120.1773046 322.35218971 -113 344 C-112.75668945 344.73959961 -112.51337891 345.47919922 -112.26269531 346.24121094 C-102.03581948 376.71989731 -84.35414408 407.20968263 -61.1796875 429.7421875 C-59 432 -59 432 -59 434 C-58.34 434 -57.68 434 -57 434 C-54.70137153 436.16341503 -52.5413135 438.42067659 -50.38671875 440.7265625 C-44.15583566 447.21095047 -37.16961021 452.60652387 -30 458 C-29.15260254 458.63856934 -29.15260254 458.63856934 -28.28808594 459.29003906 C-19.22715537 466.06323029 -9.72496455 472.01547865 -0.00830078 477.79833984 C1.67219189 478.8038571 3.33971564 479.83100697 5.00390625 480.86328125 C17.97299495 488.77310391 32.04829774 494.84544045 45.93359375 500.94921875 C46.71497711 501.29337326 47.49636047 501.63752777 48.30142212 501.99211121 C52.18202807 503.69979539 56.06650425 505.3974374 59.95898438 507.07788086 C87.48706916 519.06142262 87.48706916 519.06142262 96 528 C96 528.99 96 529.98 96 531 C63.43636167 528.30646448 31.95773555 517.84664631 2.4296875 504.12597656 C0.1709267 503.07921161 -2.09868458 502.06256159 -4.375 501.0546875 C-30.99901803 489.11245813 -56.25167228 473.21630509 -79 455 C-79.68288086 454.45988281 -80.36576172 453.91976563 -81.06933594 453.36328125 C-94.21942632 442.96180065 -106.31634597 431.7592189 -118.21530151 419.95892334 C-119.2205005 418.96241933 -120.22706344 417.96728886 -121.23513794 416.97369385 C-127.96270541 410.33140679 -134.10694971 403.39396731 -140 396 C-141.55950185 394.1849197 -143.12133812 392.37183674 -144.6875 390.5625 C-156.09743549 376.8528876 -165.71956305 361.79749268 -174.62695312 346.37451172 C-175.91993822 344.13845676 -177.23238704 341.91485955 -178.546875 339.69140625 C-199.37697462 303.9084769 -211.96920472 263.63145647 -219 223 C-219.16371094 222.12923828 -219.32742187 221.25847656 -219.49609375 220.36132812 C-222.26899322 205.31662976 -222.33835165 190.18745413 -222.4375 174.9375 C-222.44971588 173.92791229 -222.46193176 172.91832458 -222.47451782 171.87814331 C-222.89449036 130.61657455 -210.03413099 90.28420215 -184 58 C-183.30648437 57.10410156 -182.61296875 56.20820313 -181.8984375 55.28515625 C-155.30781273 21.58758267 -115.60494607 -0.96056201 -73.01171875 -6.33984375 C-48.4991924 -8.92505412 -23.53770694 -7.60035087 0 0 Z " fill="#FBF9F7" transform="translate(305,341)"/>
<path d="M0 0 C17.78779843 15.00417431 29.20022533 35.79838905 32 59 C33.91954504 83.23832294 27.22683634 106.83643601 11.765625 125.73046875 C-3.61527168 143.25938721 -24.39549156 155.3790756 -47.94824219 157.23193359 C-74.10462695 158.52225012 -96.06082925 152.25395291 -116 135 C-116.67289062 134.42765625 -117.34578125 133.8553125 -118.0390625 133.265625 C-132.88371469 119.57329741 -142.99177499 97.63693615 -144.140625 77.54003906 C-145.11234147 49.54488756 -137.98557006 26.93754081 -119.0625 5.83984375 C-87.53774523 -27.1467444 -34.92170582 -27.81466677 0 0 Z " fill="#FBF9F7" transform="translate(569,122)"/>
<path d="M0 0 C1.58578857 0.00241699 1.58578857 0.00241699 3.20361328 0.00488281 C12.18673504 0.14424075 19.98846433 1.49800139 28.5 4.375 C29.89025391 4.82552734 29.89025391 4.82552734 31.30859375 5.28515625 C50.21627211 12.09899978 65.81263856 27.90003987 74.375 45.8125 C82.70513478 64.460483 83.64472133 87.11444137 76.5 106.375 C72.34752705 116.61320435 67.01411222 125.2140686 59.5 133.375 C58.96117187 134.00535156 58.42234375 134.63570312 57.8671875 135.28515625 C46.09830831 148.26640742 26.70057716 156.52618272 9.41015625 157.49169922 C-10.81773018 158.34874078 -29.39093395 154.31550595 -45.5 141.375 C-46.33144531 140.70726562 -47.16289062 140.03953125 -48.01953125 139.3515625 C-63.98983176 125.7608613 -73.96668624 106.63049272 -75.72314453 85.71826172 C-76.92174848 64.2899285 -71.81153 44.10562367 -57.54296875 27.6015625 C-56.86878906 26.86679688 -56.19460937 26.13203125 -55.5 25.375 C-54.83613281 24.61960938 -54.17226562 23.86421875 -53.48828125 23.0859375 C-39.59880551 8.14383975 -20.2952958 -0.0322301 0 0 Z " fill="#FBF9F7" transform="translate(225.5,152.625)"/>
<path d="M0 0 C1.3974719 1.18227185 2.77204955 2.39202817 4.125 3.625 C4.93195313 4.34042969 5.73890625 5.05585938 6.5703125 5.79296875 C19.36643611 17.78688889 29.18242006 34.63992913 30.30200195 52.43896484 C30.81698458 76.7847173 28.09959902 96.92207817 11.125 115.625 C10.37476563 116.46804688 9.62453125 117.31109375 8.8515625 118.1796875 C-5.40313013 133.35701396 -24.94452925 141.37694508 -45.58349609 142.0300293 C-69.46652673 142.31419848 -88.13317972 132.97887764 -104.953125 116.6015625 C-121.50787935 98.92824366 -125.7665447 76.93508595 -125.04101562 53.58300781 C-123.86476119 32.62492139 -112.24385829 16.16926774 -97.4140625 2.328125 C-69.74359303 -21.38942026 -29.06261859 -21.52975072 0 0 Z " fill="#FBF9F7" transform="translate(843.875,168.375)"/>
<path d="M0 0 C4.9368841 2.89186094 9.08237531 6.11055198 11.3671875 11.47265625 C13.31841382 19.26551691 13.41482582 27.47990807 9.5 34.625 C5.64476986 40.11550549 0.62981989 43.73362991 -6 45 C-13.14073288 45.67637377 -19.14779406 45.43236694 -25 41 C-30.05383152 36.21583933 -33.60704557 31.82445188 -34.3359375 24.73046875 C-34.42704516 16.46700417 -34.15547037 10.49490235 -28.421875 4.29296875 C-19.91852916 -3.57837166 -10.2560525 -5.26715875 0 0 Z " fill="#FAF7F5" transform="translate(532,413)"/>
<path d="M0 0 C6.67901788 3.52572691 10.78051958 9.28584087 13 16.4375 C14.12316715 23.98074604 11.93114428 29.88917267 7.8671875 36.1953125 C4.95284762 40.03606505 1.63826844 43.06376991 -3 44.4375 C-10.21470886 45.22572906 -17.9520312 45.74998642 -24.35546875 41.84375 C-27.50383166 39.15156318 -29.84339047 35.95400981 -32 32.4375 C-32.37640625 31.83421875 -32.7528125 31.2309375 -33.140625 30.609375 C-35.33925046 25.05284883 -34.84558518 17.65781241 -33.34765625 11.953125 C-27.42956139 -1.15304216 -12.9957379 -5.15844451 0 0 Z " fill="#FAF7F5" transform="translate(675,448.5625)"/>
<path d="M0 0 C4.93079252 2.72123927 7.91773794 6.1870682 10.75 11 C11.12125 11.60457031 11.4925 12.20914062 11.875 12.83203125 C14.23034851 18.66782779 13.77892512 26.12884497 11.6875 31.96484375 C7.93218922 38.75093525 3.05255955 42.56581348 -4.25 45 C-11.38531365 45.68327217 -17.6130448 45.9696527 -23.53515625 41.5625 C-28.40919131 37.12146578 -32.86883024 32.59895171 -33.5859375 25.828125 C-33.67651816 17.53093613 -33.43023266 11.52168731 -27.671875 5.29296875 C-19.60361027 -2.17562765 -10.17133342 -4.52739052 0 0 Z " fill="#FAF7F5" transform="translate(401.25,463)"/>
<path d="M0 0 C6.21039341 2.75746348 10.52991469 8.04398949 13.98828125 13.7578125 C15.90289176 22.69266156 14.39243342 29.99116824 9.48828125 37.5703125 C4.84892805 42.64026435 -1.61217951 45.63306976 -8.44921875 45.9453125 C-16.05326107 45.47975889 -22.27178488 43.11583531 -27.44921875 37.4453125 C-32.32517301 31.54962742 -32.95951596 26.10145775 -32.82421875 18.609375 C-31.98466242 11.3856924 -27.60585172 7.08275385 -22.1953125 2.609375 C-15.70469641 -1.9500287 -7.59288408 -1.91335835 0 0 Z " fill="#FAF8F6" transform="translate(335.44921875,574.6171875)"/>
<path d="M0 0 C5.49013336 3.15342371 10.80185684 8.53057052 12.8125 14.5625 C13.66363734 23.23194178 13.12457041 30.42648562 7.8125 37.5625 C2.96202462 42.2472416 -2.72780239 44.83949425 -9.5 44.9375 C-16.04806835 44.77929164 -20.3614498 43.18748734 -25.1640625 38.7265625 C-31.06183995 32.39191264 -32.70202343 26.90796064 -32.4921875 18.3046875 C-31.6748349 10.94851406 -27.75229837 6.68151253 -22.28515625 2.0078125 C-15.77016506 -2.48110136 -7.28764686 -3.15413965 0 0 Z " fill="#FAF7F5" transform="translate(645.1875,598.4375)"/>
<path d="M0 0 C0.66 0.33 1.32 0.66 2 1 C-2.29 5.29 -6.58 9.58 -11 14 C-11.66 13.67 -12.32 13.34 -13 13 C-11.21188257 11.01752198 -9.41974481 9.03896272 -7.625 7.0625 C-7.11710937 6.49853516 -6.60921875 5.93457031 -6.0859375 5.35351562 C-2.2265625 1.11328125 -2.2265625 1.11328125 0 0 Z " fill="#8B1818" transform="translate(516,776)"/>
<path d="M0 0 C0.33 0.66 0.66 1.32 1 2 C-0.07507629 3.29854721 -1.16043736 4.58858361 -2.25 5.875 C-2.85328125 6.59429687 -3.4565625 7.31359375 -4.078125 8.0546875 C-5.97087634 9.97052118 -7.53657727 10.96449045 -10 12 C-7.11954533 7.34695784 -3.96084779 3.78080926 0 0 Z " fill="#8A1615" transform="translate(270,373)"/>
<path d="M0 0 C0 3 0 3 -2.1875 5.26171875 C-3.115625 6.06222656 -4.04375 6.86273438 -5 7.6875 C-5.928125 8.49574219 -6.85625 9.30398438 -7.8125 10.13671875 C-8.8953125 11.05904297 -8.8953125 11.05904297 -10 12 C-10.66 11.67 -11.32 11.34 -12 11 C-8.04 7.37 -4.08 3.74 0 0 Z " fill="#871211" transform="translate(292,352)"/>
<path d="M0 0 C0.33 0.99 0.66 1.98 1 3 C-0.43359375 5.04296875 -0.43359375 5.04296875 -2.4375 7.1875 C-3.09621094 7.90292969 -3.75492187 8.61835937 -4.43359375 9.35546875 C-4.95050781 9.89816406 -5.46742188 10.44085937 -6 11 C-6.66 10.67 -7.32 10.34 -8 10 C-5.36 6.7 -2.72 3.4 0 0 Z " fill="#881211" transform="translate(487,550)"/>
<path d="M0 0 C0 3.58912412 -0.66436554 4.10857029 -3 6.6875 C-3.556875 7.31011719 -4.11375 7.93273437 -4.6875 8.57421875 C-5.120625 9.04472656 -5.55375 9.51523437 -6 10 C-6.66 9.67 -7.32 9.34 -8 9 C-5.36 6.03 -2.72 3.06 0 0 Z " fill="#891717" transform="translate(604,582)"/>
<path d="M0 0 C0.99 0.33 1.98 0.66 3 1 C0.69 3.31 -1.62 5.62 -4 8 C-4.66 7.34 -5.32 6.68 -6 6 C-4.02 4.02 -2.04 2.04 0 0 Z " fill="#8B1514" transform="translate(852,286)"/>
<path d="M0 0 C0 4.38968456 -2.12805101 5.76905739 -5 9 C-5.66 8.67 -6.32 8.34 -7 8 C-4.69 5.36 -2.38 2.72 0 0 Z " fill="#8A1514" transform="translate(858,739)"/>
<path d="M0 0 C0.99 0.33 1.98 0.66 3 1 C-0.465 3.97 -0.465 3.97 -4 7 C-4.66 6.67 -5.32 6.34 -6 6 C-4.02 4.02 -2.04 2.04 0 0 Z " fill="#8E1E1D" transform="translate(488,396)"/>
<path d="M0 0 C0 3 0 3 -1.3125 4.38671875 C-2.875 5.59114583 -4.4375 6.79557292 -6 8 C-6.66 7.67 -7.32 7.34 -8 7 C-5.36 4.69 -2.72 2.38 0 0 Z " fill="#86100F" transform="translate(769,686)"/>
</svg>
